<?xml version="1.0" encoding="UTF-8"?>
<svg width="243px" height="243px" viewBox="0 0 243 243" version="1.1" xmlns="http://www.w3.org/2000/svg" xmlns:xlink="http://www.w3.org/1999/xlink">
    <!-- Generator: Sketch 48.2 (47327) - http://www.bohemiancoding.com/sketch -->
    <title>Group 14 Copy 3</title>
    <desc>Created with Sketch.</desc>
    <defs>
        <radialGradient cx="50%" cy="50%" fx="50%" fy="50%" r="89.1512606%" id="radialGradient-1">
            <stop stop-color="#C64EFF" offset="0%"></stop>
            <stop stop-color="#620DE2" offset="100%"></stop>
        </radialGradient>
    </defs>
    <g id="Page-1" stroke="none" stroke-width="1" fill="none" fill-rule="evenodd">
        <g id="Group-14-Copy-3" fill="url(#radialGradient-1)">
            <path d="M243,140.001954 L75.8396313,46.8352344 C66.7758579,41.7835464 58.3466626,44.5001112 57.0124968,52.9028516 C56.5860844,55.5884494 56.9340562,58.6535639 58.0210598,61.7867912 L120.888954,243 L33,243 C14.7746033,243 2.23196738e-15,228.225397 0,210 L0,33 C-2.23196738e-15,14.7746033 14.7746033,3.34795107e-15 33,0 L210,0 C228.225397,-3.34795107e-15 243,14.7746033 243,33 L243,140.001954 Z M243,185.761726 L243,210 C243,228.225397 228.225397,243 210,243 L167.274887,243 L175.204257,202.255819 C177.069862,192.669618 184.059722,186.804355 193.824211,186.631625 L243,185.761726 Z" id="Combined-Shape-Copy-4"></path>
        </g>
    </g>
</svg>