<svg width="297" height="284" viewBox="0 0 297 284" fill="none" xmlns="http://www.w3.org/2000/svg">
<mask id="mask0" mask-type="alpha" maskUnits="userSpaceOnUse" x="0" y="0" width="297" height="284">
<rect width="296.622" height="284" rx="50" fill="white"/>
</mask>
<g mask="url(#mask0)">
<path fill-rule="evenodd" clip-rule="evenodd" d="M35.1123 250.799L209.3 340.809C217.641 345.119 229.039 344.553 234.758 339.545C238.337 336.411 238.967 332.107 236.426 328.162L199.923 271.501C195.202 264.172 196.183 256.181 202.537 250.212L251.664 204.062C257.131 198.927 254.665 191.393 246.156 187.235C240.832 184.634 234.12 183.875 228.404 185.229L37.6137 230.426C28.4777 232.59 24.5879 239.406 28.9255 245.649C30.3119 247.644 32.4464 249.421 35.1123 250.799Z" fill="#4D00B0"/>
<path fill-rule="evenodd" clip-rule="evenodd" d="M64.9319 144.543L173.642 307.715C178.848 315.529 189.091 320.56 196.521 318.952C201.17 317.946 203.808 314.488 203.498 309.805L199.042 242.551C198.466 233.853 203.198 227.338 211.649 225.199L276.991 208.653C284.261 206.812 285.757 199.027 280.331 191.265C276.936 186.409 271.433 182.491 265.777 180.904L76.9966 127.937C67.9568 125.401 61.2504 129.476 62.0175 137.039C62.2626 139.457 63.2682 142.046 64.9319 144.543Z" fill="#89009D"/>
<path fill-rule="evenodd" clip-rule="evenodd" d="M152.415 68.6467L151.295 264.713C149.599 351.319 235.94 420.959 238.301 416.903L272.214 358.655V358.655C277.971 348.769 292.37 339.259 292.37 327.819L292.37 261.69C292.37 251.315 305.035 238.204 304.862 227.831V227.831C304.763 221.906 302.392 215.581 298.59 211.103L171.703 61.6265C165.627 54.4688 157.788 54.0972 154.195 60.7964C153.046 62.9375 152.432 65.646 152.415 68.6467Z" fill="#FF3A6D"/>
<path fill-rule="evenodd" clip-rule="evenodd" d="M279.188 78.3702L158.544 232.812C86.1415 339.27 173.242 321.863 173.242 332.336C173.242 343.48 209.207 355.589 224.633 360.271C229.099 361.626 233.841 361.189 237.33 358.09C241.772 354.144 247.367 348.25 252.616 343.263C258.545 337.629 272.688 324.901 275.992 317.418V317.418C279.296 309.936 294.428 305.322 299.959 299.296C300.422 298.792 300.875 298.248 301.315 297.665C304.884 292.935 306.91 286.491 306.671 280.622L298.709 84.7129C298.328 75.3318 292.38 70.213 285.424 73.2797C283.2 74.2598 281.049 76.0161 279.188 78.3702Z" fill="#FF9139"/>
<path fill-rule="evenodd" clip-rule="evenodd" d="M322.037 153.913L151.179 247.761C128.938 257.773 94.3355 305.806 151.179 339.467C184.913 359.444 248.751 365.63 253.056 363.248C258.24 360.38 262.712 355.316 264.881 349.857L337.291 167.647C340.758 158.922 337.406 151.826 329.804 151.799C327.374 151.79 324.695 152.519 322.037 153.913Z" fill="#FFB816"/>
</g>
</svg>
